Coordinates
version=1
nRows=17
nColumns=34
inDegrees=yes

Units are S.I. units (second, meters, Newtons, ...)
If the header above contains a line with 'inDegrees', this indicates whether rotational values are in degrees (yes) or radians (no).

endheader
time	pelvis_tilt	pelvis_list	pelvis_rotation	pelvis_tx	pelvis_ty	pelvis_tz	hip_flexion_r	hip_adduction_r	hip_rotation_r	knee_angle_r	ankle_angle_r	subtalar_angle_r	mtp_angle_r	hip_flexion_l	hip_adduction_l	hip_rotation_l	knee_angle_l	ankle_angle_l	subtalar_angle_l	mtp_angle_l	lumbar_extension	lumbar_bending	lumbar_rotation	arm_flex_r	arm_add_r	arm_rot_r	elbow_flex_r	pro_sup_r	arm_flex_l	arm_add_l	arm_rot_l	elbow_flex_l	pro_sup_l
      5.46666670	      6.96845068	      3.71568178	    -24.62450103	      0.05774841	      1.02047008	     -0.07725289	    -16.77773665	     -8.80423595	    -30.34876222	     10.62233009	     12.72234219	     -7.00921125	      0.00000000	     -2.86936877	      2.16750272	     13.56446062	      6.80026654	      6.08411253	      9.10007175	      0.00000000	    -12.97410986	     -3.03261598	     12.71111832	     12.20531515	    -10.22682521	     19.81903310	     15.34063765	    119.74817918	     10.92869858	     -5.94490044	     24.21246325	     21.50122094	    113.22909210
      5.48333330	      7.02930404	      3.75948276	    -24.22698312	      0.05804813	      1.02036176	     -0.07673498	    -16.92093267	     -8.70987442	    -30.70304108	     10.64084171	     12.78231519	     -7.18407652	      0.00000000	     -2.90306711	      2.13387866	     13.94309394	      6.86324131	      6.11004975	      9.25269396	      0.00000000	    -12.88003516	     -3.24818081	     13.21776033	     11.95734533	     -9.86964736	     19.85302815	     15.26383749	    119.74817918	     10.95586179	     -6.09275381	     23.94385384	     21.37778992	    113.16940465
      5.50000000	      7.09045561	      4.06893211	    -22.23777771	      0.05941327	      1.02028858	     -0.07938127	    -17.65247547	     -8.38737966	    -33.56946732	     10.03421704	     12.57066232	     -6.40160821	      0.00000000	     -2.71849814	      2.44814348	     16.96254167	      6.91928357	      6.18666172	      8.43419014	      0.00000000	    -12.82241681	     -3.40447244	     11.76224788	     11.95472831	     -9.32480356	     19.16188986	     15.22795615	    119.74817918	     10.64765545	     -5.76054346	     19.56222560	     21.32662276	    112.14081784
      5.51666670	      7.14206492	      4.40982243	    -21.63809776	      0.06001575	      1.02016342	     -0.07969993	    -17.73531763	     -8.56919310	    -34.29735967	     10.07199951	     12.69317245	     -6.58061952	      0.00000000	     -2.86433916	      2.68141912	     17.73552524	      6.45817655	      5.93644099	      8.72708885	      0.00000000	    -12.58414581	     -3.86225478	     11.92260364	     11.68723329	     -8.95447667	     19.23430705	     15.37204032	    119.74817918	     10.81501173	     -5.68569138	     18.66460626	     20.58575784	    111.96186095
      5.53333330	      7.16363970	      4.57856228	    -20.43969785	      0.06038870	      1.02014312	     -0.08128092	    -18.03339892	     -8.44061458	    -36.35349893	     10.01027184	     12.91196606	     -5.59202969	      0.00000000	     -2.73911826	      2.85442579	     19.82740487	      6.50695946	      5.71241589	      7.54751714	      0.00000000	    -12.57627445	     -4.01625433	     11.22137628	     11.79389208	     -8.48718873	     19.28236216	     15.44014347	    119.74817918	     10.59805695	     -5.46034451	     14.92279794	     20.82865998	    111.22397553
      5.55000000	      7.19687802	      4.81578952	    -19.99335456	      0.06070885	      1.02004441	     -0.08164516	    -18.10864275	     -8.53588099	    -36.87337009	      9.98896962	     13.03572749	     -5.84537707	      0.00000000	     -2.82703874	      3.00057974	     20.32700651	      6.21702524	      5.70774263	      7.81611345	      0.00000000	    -12.41664171	     -4.37745687	     11.49979321	     11.69390107	     -8.09068003	     19.44934641	     15.58459933	    119.74817918	     10.80020231	     -5.49974049	     14.46571932	     20.37132480	    111.15432549
      5.56666670	      7.28603406	      5.06269031	    -19.26700572	      0.06126895	      1.02008960	     -0.08258847	    -18.30151575	     -8.62483583	    -37.81534066	     10.01278018	     12.94974069	     -6.01924856	      0.00000000	     -2.80867568	      3.22933995	     21.22109544	      6.22263741	      5.61617679	      8.03035516	      0.00000000	    -12.33124892	     -4.70416828	     11.33011037	     11.64910422	     -7.72930051	     19.78193899	     15.88161521	    119.74817918	     10.92005945	     -5.47916904	     13.41962804	     19.70898397	    110.95471531
      5.58333330	      7.27906449	      5.18588009	    -18.39588207	      0.06167316	      1.02008432	     -0.08387453	    -18.47664294	     -8.50557075	    -39.07759252	      9.98529414	     12.98278571	     -5.86421684	      0.00000000	     -2.62465552	      3.34767719	     22.34462106	      6.43217681	      5.60781861	      7.85011018	      0.00000000	    -12.24626667	     -4.83651179	     10.96700135	     11.72802588	     -7.39721730	     20.50467270	     16.09244590	    119.74817918	     10.88656368	     -5.45156370	     11.74188260	     19.49508398	    110.64214717
      5.60000000	      7.30346393	      5.15173691	    -18.23917210	      0.06160021	      1.02017431	     -0.08409019	    -18.48920766	     -8.45775619	    -39.17495553	     10.06167728	     12.96524381	     -5.86374025	      0.00000000	     -2.62791483	      3.29889140	     22.41754924	      6.49405233	      5.57721866	      7.83960491	      0.00000000	    -12.20634925	     -4.87971370	     11.23270357	     11.89973770	     -6.97805406	     20.60329386	     16.25166244	    119.74817918	     10.83089035	     -5.63158414	     11.63397765	     19.44883891	    110.62483566
      5.61666670	      7.28719904	      5.29073574	    -17.63956086	      0.06176161	      1.02016061	     -0.08476473	    -18.53533524	     -8.42730999	    -39.99999995	     10.11279395	     12.97859221	     -6.03503853	      0.00000000	     -2.58799329	      3.36163841	     22.98462532	      6.39424487	      5.57367754	      7.86520639	      0.00000000	    -12.07640059	     -5.10766294	     11.29640003	     11.96040314	     -6.67431284	     21.21102956	     16.52168291	    119.74817918	     10.90026577	     -5.76160042	     10.91523362	     19.29786707	    110.50530908
      5.63333330	      7.33228366	      5.25938398	    -17.52548301	      0.06189528	      1.02036232	     -0.08505368	    -18.57453831	     -8.40067824	    -39.99999995	     10.18032017	     12.96160356	     -6.06635537	      0.00000000	     -2.58510397	      3.35133269	     23.13795134	      6.52379921	      5.48380398	      7.91352660	      0.00000000	    -12.01804425	     -5.08844371	     11.53000710	     12.18212594	     -6.32682803	     21.33769014	     16.72431724	    119.74817918	     10.68644257	     -5.91988124	     10.81480007	     19.17364497	    110.48943618
      5.65000000	      7.14438126	      5.37474172	    -16.69730071	      0.06175657	      1.02025248	     -0.08664496	    -18.48892669	     -8.08368790	    -39.99999995	      9.96129877	     12.25678227	     -7.83367945	      0.00000000	     -2.19871119	      3.47240556	     24.62411654	      6.70627490	      5.14175652	      6.86949828	      0.00000000	    -11.84084780	     -5.08274687	     10.98809548	     12.71850614	     -6.39510286	     25.21205767	     17.02212475	    119.74817918	     10.35764484	     -5.89164671	      8.28026013	     19.41644768	    110.25849511
      5.66666670	      7.15372400	      5.37307274	    -16.47793465	      0.06180221	      1.02043467	     -0.08663096	    -18.50236954	     -8.01627331	    -39.99999995	     10.06496000	     12.24301435	     -7.82695801	      0.00000000	     -2.21496772	      3.42320988	     24.73895972	      6.67548625	      5.07519510	      6.95971611	      0.00000000	    -11.78229853	     -5.16166375	     11.30223414	     12.90385710	     -6.00333882	     25.33122373	     17.21888328	    119.74817918	     10.20200118	     -6.07820323	      8.23227193	     19.32188577	    110.26417702
      5.68333330	      7.06714310	      5.57256422	    -16.10541373	      0.06225281	      1.02044996	     -0.08697185	    -18.40488589	     -8.05276868	    -39.99999995	     10.12035675	     12.15734458	     -8.41746706	      0.00000000	     -2.24756717	      3.48273049	     25.18664394	      6.26106659	      4.72977028	      7.29685820	      0.00000000	    -11.54857519	     -5.40830400	     11.55393080	     12.94263620	     -5.87455462	     26.40153782	     17.87043654	    119.74817918	     10.00161855	     -6.28628027	      8.07608353	     19.18389405	    110.38550008
      5.70000000	      7.06403506	      5.57283059	    -15.89564821	      0.06203208	      1.02058466	     -0.08704900	    -18.40098661	     -7.96702703	    -39.99999995	     10.17281191	     12.11523915	     -8.51291301	      0.00000000	     -2.18146566	      3.45808710	     25.27363110	      6.33600854	      4.67052762	      7.31854846	      0.00000000	    -11.57874916	     -5.49201521	     11.98316406	     13.21812714	     -5.48078858	     26.58425568	     18.11898208	    119.74817918	      9.93446865	     -6.47837528	      8.04529684	     19.14905690	    110.39742808
      5.71666670	      6.82919419	      5.73078846	    -15.09103875	      0.06160059	      1.02037986	     -0.08860841	    -18.17459767	     -7.75628636	    -39.99999995	     10.10942988	     11.42713239	    -10.14566153	      0.00000000	     -1.54438661	      3.66368037	     26.12014879	      6.84950802	      4.55484856	      7.02157447	      0.00000000	    -11.46189723	     -5.55515501	     11.79943543	     13.80093403	     -5.84450177	     31.50770535	     18.66345387	    119.74817918	      9.87891948	     -6.73060984	      8.24815977	     19.13050625	    111.06600184
      5.73333330	      6.70080198	      5.73954677	    -14.87855007	      0.06149882	      1.02033744	     -0.08861856	    -18.03109604	     -7.63312417	    -39.99999995	     10.16357887	     11.46882040	    -10.37453375	      0.00000000	     -1.54043343	      3.51908824	     26.23132518	      6.48972149	      4.30925071	      7.22966154	      0.00000000	    -11.35982536	     -5.62606916	     12.38845140	     13.93248698	     -5.61994017	     31.95529984	     19.11725088	    119.74817918	      9.77144252	     -6.94661339	      8.21869170	     19.26247785	    111.12963820
